<svg width="154" height="72" viewBox="0 0 154 72" fill="none" xmlns="http://www.w3.org/2000/svg">
<g id="Frame" clip-path="url(#clip0_190_7101)">
<g id="Group">
<g id="Group_2">
<path id="Vector" d="M4.07227 40.1205L9.05124 43.3036C9.05124 43.3036 10.0686 40.709 13.8906 41.4803C17.7126 42.2516 33.3115 43.4619 33.3115 43.4619C33.3115 43.4619 38.9308 45.039 41.5297 43.2129C44.1271 41.3868 101.721 41.4717 101.721 41.4717L110.005 43.5568C110.005 43.5568 112.716 42.6128 114.634 42.5409C116.552 42.4689 133.008 42.1077 133.008 42.1077L135.904 41.6041L142.75 35.5574L129.001 16.8301L28.0922 20.4924L7.57338 26.293L4.07227 40.1205Z" fill="#050505"/>
<path id="Vector_2" d="M147.305 37.3771H153.197C153.197 37.3771 153.977 37.3353 153.846 38.8218C153.715 40.3083 152.49 40.1112 152.49 40.1112H146.793L147.305 37.3771Z" fill="#DFE4E8"/>
<path id="Vector_3" d="M15.6989 19.4995L12.9533 19.1455C12.9533 19.1455 8.36138 19.8665 5.77836 22.0854C3.19533 24.3044 2.11032 28.6444 2.26429 29.2646C2.4197 29.8848 10.7904 26.578 10.9962 26.2945C11.2034 26.0096 15.6989 19.4995 15.6989 19.4995Z" fill="#C5D6E2"/>
<path id="Vector_4" d="M40.25 15.2802C40.25 15.2802 41.3638 14.6557 42.1668 14.388C42.9697 14.1204 45.7772 13.7189 45.5988 13.9419C45.4204 14.165 44.3066 14.6557 44.5282 15.2788C44.7527 15.9047 40.25 15.2802 40.25 15.2802Z" fill="#5C5F66"/>
<path id="Vector_5" d="M43.3242 15.3246C43.3242 15.3246 61.745 4.99399 67.986 2.80957L70.3834 2.93189L56.5199 10.5543L47.8269 16.3046L43.3242 15.3246Z" fill="#C5D6E2"/>
<path id="Vector_6" d="M146.213 14.6423C146.213 14.6423 148.435 13.9703 148.796 15.4698C149.157 16.9678 149.157 18.4154 149.778 19.9652C150.398 21.515 150.811 22.4446 150.294 23.5296C149.778 24.6147 141.201 22.4964 141.201 22.4964C141.201 22.4964 141.149 14.7459 146.213 14.6423Z" fill="#AE222F"/>
<path id="Vector_7" d="M38.7864 44.1347C43.6344 43.7016 99.2781 43.5778 108.665 43.5606L108.611 40.9502L38.7734 42.1604C38.7763 42.9231 38.7806 43.5793 38.7864 44.1347Z" fill="#9D9E9B"/>
<path id="Vector_8" d="M151.243 26.0508C151.243 25.5443 150.519 22.5785 150.519 22.5785C150.519 22.5785 149.578 22.544 146.866 22.4706C144.153 22.3986 143.611 19.9048 142.995 18.7105C142.38 17.5161 147.336 15.6756 147.915 14.8079C148.493 13.9401 139.486 13.1156 137.57 12.8983C135.653 12.681 130.156 9.40583 122.92 5.86155C115.687 2.31727 106.534 -0.000976562 89.0994 -0.000976562C71.6643 -0.000976562 66.8695 3.12455 66.8695 3.12455H68.9518C55.1704 9.52814 47.3551 14.8956 47.3551 14.8956C45.9075 15.3302 41.4221 14.8021 41.4221 14.8021C20.4787 16.9376 12.9527 19.145 12.9527 19.145C12.9527 19.145 14.8637 20.0171 14.4665 20.5956C14.0679 21.174 8.26871 25.3774 6.46131 26.9689C4.65247 28.5605 2.17018 28.4669 2.17018 28.4669C0.276439 29.3303 -0.0631671 30.8615 0.00878342 31.8745C0.080734 32.8876 0.840532 37.7342 0.876507 38.386C0.912482 39.0365 -0.100581 38.9645 0.226074 40.1589C0.551291 41.3518 3.40917 42.7635 3.40917 42.7635L8.1061 43.2153C7.82261 41.8209 7.01964 37.1801 8.19388 34.2431C9.58972 30.755 13.1599 23.6822 23.079 23.6822C31.0972 23.6822 38.7714 28.926 38.7714 39.9689C38.7714 40.7877 38.7729 41.513 38.7743 42.162L108.612 40.9518L108.576 39.1832C108.576 39.1832 110.716 23.4491 124.463 24.1326C136.267 24.7183 138.385 35.2461 136.985 41.5116C139.57 41.2885 145.973 40.7446 146.866 40.7733C147.987 40.8093 148.457 39.8697 148.457 39.8697C154.715 38.0608 152.544 35.9987 152.544 35.9987C153.918 33.2502 153.81 31.4414 153.992 28.8727C154.173 26.3041 151.243 26.0508 151.243 26.0508Z" fill="#A7A8A3"/>
<path id="Vector_9" d="M124.463 24.13C110.716 23.4465 108.576 39.1807 108.576 39.1807L108.664 43.5596C109.533 43.5581 110.007 43.5567 110.007 43.5567C109.789 40.6269 109.899 26.0008 124.584 25.8396C137.787 25.6942 135.906 41.6025 135.906 41.6025C135.906 41.6025 136.322 41.5651 136.985 41.509C138.385 35.245 136.267 24.7172 124.463 24.13Z" fill="#9D9E9B"/>
<path id="Vector_10" d="M23.0792 23.6787C13.1615 23.6787 9.58992 30.7515 8.19408 34.2396C7.01985 37.1766 7.82281 41.8174 8.1063 43.2119L9.05173 43.3025C7.60552 35.2728 10.9685 23.9147 24.4606 25.0357C37.9528 26.1567 38.2061 41.2404 38.2061 42.4708C38.2061 43.7011 38.4953 44.1702 38.4953 44.1702C38.5485 44.1573 38.6478 44.1443 38.786 44.1328C38.7759 43.1054 38.7701 41.7455 38.7701 39.964C38.7716 28.9225 31.0973 23.6787 23.0792 23.6787Z" fill="#9D9E9B"/>
<path id="Vector_11" d="M49.7695 16.8296C49.7695 16.8296 67.7572 4.4124 70.3819 3.95767C70.3819 3.95767 82.2423 0.645067 91.9095 1.56459C101.577 2.48412 119.445 3.95048 119.957 9.55686C120.47 15.1647 119.638 14.1401 119.638 14.1401L49.7695 16.8296Z" fill="#C5D6E2"/>
<path id="Vector_12" d="M87.043 2.09961L84.3535 15.6536L90.1167 15.373L91.078 2.09961H87.043Z" fill="#313D49"/>
<path id="Vector_13" d="M23.3376 49.9012C29.6245 49.744 34.5936 44.52 34.4364 38.2331C34.2792 31.9462 29.0552 26.9771 22.7682 27.1343C16.4813 27.2915 11.5122 32.5155 11.6694 38.8024C11.8267 45.0894 17.0507 50.0585 23.3376 49.9012Z" fill="#27262C"/>
<path id="Vector_14" d="M14.4766 38.5184C14.4766 43.2686 18.3274 47.1208 23.079 47.1208C27.8291 47.1208 31.6799 43.27 31.6799 38.5184C31.6799 33.7668 27.8291 29.916 23.079 29.916C18.3288 29.9175 14.4766 33.7682 14.4766 38.5184Z" fill="#C3BFBE"/>
<g id="Group_3">
<path id="Vector_15" d="M20.0957 32.7527L22.0858 35.0148C22.0858 35.0148 22.4298 35.5573 22.9003 35.5573C23.3709 35.5573 23.7148 35.1774 23.7148 35.1774L25.7971 32.7527C25.7971 32.7527 26.0863 32.4087 25.7971 32.1742C25.5078 31.9382 24.4919 31.5957 23.0816 31.5957C21.67 31.5943 19.5877 31.9742 20.0957 32.7527Z" fill="#27262C"/>
<path id="Vector_16" d="M20.0953 44.2871L22.0855 42.0249C22.0855 42.0249 22.4294 41.4824 22.9 41.4824C23.3705 41.4824 23.7144 41.8623 23.7144 41.8623L25.7953 44.2871C25.7953 44.2871 26.0859 44.631 25.7953 44.8655C25.506 45.1015 24.4901 45.4455 23.0798 45.4455C21.6696 45.4455 19.5888 45.0656 20.0953 44.2871Z" fill="#27262C"/>
<path id="Vector_17" d="M28.9199 35.6442L26.6577 37.6343C26.6577 37.6343 26.1152 37.9782 26.1152 38.4488C26.1152 38.9193 26.4951 39.2633 26.4951 39.2633L28.9199 41.3441C28.9199 41.3441 29.2638 41.6333 29.4983 41.3441C29.7329 41.0548 30.0783 40.0389 30.0783 38.6287C30.0783 37.2184 29.6969 35.1376 28.9199 35.6442Z" fill="#27262C"/>
<path id="Vector_18" d="M17.383 35.6432L19.6451 37.6333C19.6451 37.6333 20.1876 37.9773 20.1876 38.4478C20.1876 38.9184 19.8077 39.2623 19.8077 39.2623L17.383 41.3431C17.383 41.3431 17.0391 41.6323 16.8031 41.3431C16.5685 41.0539 16.2246 40.0379 16.2246 38.6277C16.2246 37.2175 16.6059 35.1367 17.383 35.6432Z" fill="#27262C"/>
</g>
<g id="Group_4">
<path id="Vector_19" d="M134.598 38.5178C134.598 44.8062 129.5 49.9047 123.211 49.9047C116.923 49.9047 111.824 44.8062 111.824 38.5178C111.824 32.2293 116.923 27.1309 123.211 27.1309C129.5 27.1309 134.598 32.2293 134.598 38.5178Z" fill="#27262C"/>
<path id="Vector_20" d="M114.637 38.5184C114.637 43.2686 118.488 47.1208 123.239 47.1208C127.989 47.1208 131.84 43.27 131.84 38.5184C131.84 33.7668 127.989 29.916 123.239 29.916C118.488 29.9175 114.637 33.7682 114.637 38.5184Z" fill="#C3BFBE"/>
<g id="Group_5">
<path id="Vector_21" d="M120.252 32.7517L122.242 35.0138C122.242 35.0138 122.586 35.5563 123.056 35.5563C123.527 35.5563 123.871 35.1764 123.871 35.1764L125.952 32.7517C125.952 32.7517 126.241 32.4078 125.952 32.1732C125.662 31.9372 124.646 31.5947 123.236 31.5947C121.826 31.5933 119.745 31.9732 120.252 32.7517Z" fill="#27262C"/>
<path id="Vector_22" d="M120.252 44.2861L122.242 42.024C122.242 42.024 122.586 41.4814 123.056 41.4814C123.527 41.4814 123.871 41.8613 123.871 41.8613L125.952 44.2861C125.952 44.2861 126.242 44.63 125.952 44.8646C125.662 45.1006 124.646 45.4445 123.236 45.4445C121.826 45.4445 119.745 45.0646 120.252 44.2861Z" fill="#27262C"/>
<path id="Vector_23" d="M129.074 35.6432L126.812 37.6333C126.812 37.6333 126.268 37.9773 126.268 38.4478C126.268 38.9184 126.647 39.2623 126.647 39.2623L129.072 41.3431C129.072 41.3431 129.416 41.6323 129.651 41.3431C129.887 41.0539 130.231 40.0379 130.231 38.6277C130.232 37.2175 129.852 35.1367 129.074 35.6432Z" fill="#27262C"/>
<path id="Vector_24" d="M117.541 35.6422L119.803 37.6324C119.803 37.6324 120.345 37.9763 120.345 38.4468C120.345 38.9174 119.965 39.2613 119.965 39.2613L117.541 41.3421C117.541 41.3421 117.197 41.6314 116.961 41.3421C116.726 41.0529 116.381 40.0369 116.381 38.6267C116.382 37.2165 116.762 35.1357 117.541 35.6422Z" fill="#27262C"/>
</g>
</g>
<path id="Vector_25" d="M113.559 4.49636C113.559 4.49636 104.195 1.03699 89.1371 1.44566C89.1371 1.44566 76.4796 1.35932 70.4818 3.44157C70.4818 3.44157 61.2131 6.92685 48.1699 17.341H49.642H50.2191L50.9127 17.2704L121.039 14.4903C121.007 13.8398 121.134 12.6224 120.941 11.1935C120.545 8.25793 119.518 5.95696 113.559 4.49636ZM118.953 13.8773L87.2937 15.0587L50.5918 16.7294C54.1375 14.2586 67.421 5.44323 71.3754 3.96681C75.9874 2.24575 90.0725 2.14214 91.5921 2.21841C93.1117 2.29468 109.172 2.75085 116.379 6.475C116.382 6.475 121.05 7.67082 118.953 13.8773Z" fill="#F0F4F7"/>
<path id="Vector_26" d="M45.8791 40.1215L45.8691 40.0035C45.8576 39.8726 44.6848 26.8984 45.4834 22.9426C46.2619 19.0875 46.8131 18.142 49.4162 16.2023L49.5472 16.1044C60.0879 8.24741 67.9967 3.60659 72.4188 2.68419C76.3833 1.85675 83.715 1.30273 90.664 1.30273C95.8372 1.30273 103.172 1.59773 108.728 3.00796C119.13 5.64567 120.427 7.21995 120.908 10.18C121.367 13.012 121.27 22.6677 120.464 24.4651L120.439 24.5226L120.377 24.537C120.27 24.5615 109.794 27.097 108.824 39.3186L108.816 39.4351L45.8791 40.1215ZM90.664 1.55888C83.7308 1.55888 76.4192 2.11146 72.4706 2.93601C68.1478 3.83683 60.062 8.58701 49.6997 16.3102L49.5673 16.408C47.0318 18.2975 46.495 19.2199 45.7324 22.993C44.9812 26.7128 45.9957 38.5487 46.1108 39.8625L108.577 39.1804C109.575 27.3704 119.359 24.537 120.253 24.3025C121.003 22.4375 121.092 12.9271 120.653 10.2189C120.191 7.37393 118.919 5.85577 108.663 3.25403C103.134 1.85388 95.8228 1.55888 90.664 1.55888Z" fill="#1D1D1D"/>
<path id="Vector_27" d="M13.8922 27.6875L7.44117 27.7177C7.44117 27.7177 7.17639 28.9653 8.71613 29.0618C10.2559 29.1582 12.305 29.1956 12.305 29.1956C12.305 29.1956 13.2447 28.1566 13.8922 27.6875Z" fill="#BC4926"/>
<path id="Vector_28" d="M110.815 29.7168C110.824 30.1629 96.6296 30.4191 79.1197 30.75C61.6098 31.081 47.4154 31.3645 47.4082 30.9184C47.3996 30.4723 61.6443 29.9989 79.1542 29.6679C96.6641 29.3355 110.808 29.2707 110.815 29.7168Z" fill="#9D9E9B"/>
<path id="Vector_29" d="M86.0719 39.5719C85.0171 31.9091 87.1901 14.8727 87.2116 14.7014L88.8838 1.41504L89.1385 1.4467L87.4663 14.7331C87.4448 14.9043 85.2762 31.9062 86.3252 39.5359L86.0719 39.5719Z" fill="#1D1D1D"/>
<path id="Vector_30" d="M75.8524 20.2065C75.8524 20.2065 75.7862 19.2151 77.5044 18.779C79.2226 18.343 79.7104 18.3027 80.2788 18.3027C80.8472 18.3027 84.4275 18.5402 84.4534 19.8612C84.4793 21.1822 81.7984 21.6182 80.7537 21.6974C79.7118 21.7794 75.7862 21.8988 75.8524 20.2065Z" fill="#9D9E9B"/>
<path id="Vector_31" d="M109.665 19.438C109.665 19.438 109.599 18.4465 111.317 18.0105C113.034 17.5745 113.523 17.5342 114.091 17.5342C114.66 17.5342 118.24 17.7716 118.267 19.0926C118.293 20.4136 115.611 20.8497 114.568 20.9288C113.523 21.0108 109.599 21.1288 109.665 19.438Z" fill="#9D9E9B"/>
<path id="Vector_32" d="M83.0101 19.771C83.0173 20.089 82.7655 20.3538 82.4474 20.3609L77.7102 20.4718C77.3922 20.4789 77.1274 20.2271 77.1202 19.9091L77.1173 19.781C77.1101 19.463 77.362 19.1997 77.68 19.191L82.4172 19.0802C82.7352 19.073 83 19.3249 83.0072 19.6429L83.0101 19.771Z" fill="#DCE4F1"/>
<path id="Vector_33" d="M116.821 19.0024C116.828 19.3204 116.576 19.5852 116.258 19.5924L111.521 19.7032C111.203 19.7104 110.939 19.4586 110.931 19.1405L110.928 19.0125C110.921 18.6945 111.173 18.4311 111.491 18.4225L116.228 18.3117C116.546 18.3045 116.811 18.5563 116.818 18.8743L116.821 19.0024Z" fill="#DCE4F1"/>
</g>
</g>
</g>
<defs>
<clipPath id="clip0_190_7101">
<rect width="154" height="71.8785" fill="white"/>
</clipPath>
</defs>
</svg>
