<svg width="37" height="37" viewBox="0 0 37 37" fill="none" xmlns="http://www.w3.org/2000/svg">
<g id="Add call">
<path id="Vector" d="M30.8333 23.8958C28.9062 23.8958 27.0562 23.5875 25.3296 23.0171C24.79 22.8475 24.1887 22.9708 23.7571 23.3871L20.3654 26.7788C16.0025 24.5588 12.4258 20.9975 10.2058 16.6192L13.5975 13.2121C14.0292 12.8112 14.1525 12.21 13.9829 11.6704C13.4125 9.94375 13.1042 8.09375 13.1042 6.16667C13.1042 5.31875 12.4104 4.625 11.5625 4.625H6.16667C5.31875 4.625 4.625 5.31875 4.625 6.16667C4.625 20.6429 16.3571 32.375 30.8333 32.375C31.6812 32.375 32.375 31.6812 32.375 30.8333V25.4375C32.375 24.5896 31.6812 23.8958 30.8333 23.8958ZM32.375 9.25H27.75V4.625H24.6667V9.25H20.0417V12.3333H24.6667V16.9583H27.75V12.3333H32.375V9.25Z" fill="#D01818"/>
</g>
</svg>
