<svg width="30" height="30" viewBox="0 0 30 30" fill="none" xmlns="http://www.w3.org/2000/svg">
<g id="Add link" clip-path="url(#clip0_569_4840)">
<path id="Vector" d="M10 13.75H20V16.25H10V13.75ZM25.125 15H27.5C27.5 11.55 24.7 8.75 21.25 8.75H16.25V11.125H21.25C23.3875 11.125 25.125 12.8625 25.125 15ZM4.875 15C4.875 12.8625 6.6125 11.125 8.75 11.125H13.75V8.75H8.75C5.3 8.75 2.5 11.55 2.5 15C2.5 18.45 5.3 21.25 8.75 21.25H13.75V18.875H8.75C6.6125 18.875 4.875 17.1375 4.875 15ZM23.75 15H21.25V18.75H17.5V21.25H21.25V25H23.75V21.25H27.5V18.75H23.75V15Z" fill="#D01818"/>
</g>
<defs>
<clipPath id="clip0_569_4840">
<rect width="30" height="30" fill="white"/>
</clipPath>
</defs>
</svg>
