<svg width="25" height="25" viewBox="0 0 25 25" fill="none" xmlns="http://www.w3.org/2000/svg">
<g id="Format color fill" clip-path="url(#clip0_551_402)">
<path id="Vector" d="M17.2487 9.3125L7.9362 0L6.46745 1.46875L8.94662 3.94792L3.58203 9.3125C2.96745 9.92708 2.96745 10.9167 3.58203 11.5208L9.3112 17.25C9.61328 17.5521 10.0195 17.7083 10.4154 17.7083C10.8112 17.7083 11.2174 17.5521 11.5195 17.25L17.2487 11.5208C17.8633 10.9167 17.8633 9.92708 17.2487 9.3125ZM5.42578 10.4167L10.4154 5.42708L15.4049 10.4167H5.42578ZM19.7904 11.9792C19.7904 11.9792 17.707 14.2396 17.707 15.625C17.707 16.7708 18.6445 17.7083 19.7904 17.7083C20.9362 17.7083 21.8737 16.7708 21.8737 15.625C21.8737 14.2396 19.7904 11.9792 19.7904 11.9792ZM2.08203 20.8333H22.9154V25H2.08203V20.8333Z" fill="#D01818"/>
</g>
<defs>
<clipPath id="clip0_551_402">
<rect width="25" height="25" fill="white"/>
</clipPath>
</defs>
</svg>
