<svg width="17" height="14" viewBox="0 0 17 14" fill="none" xmlns="http://www.w3.org/2000/svg">
<path d="M9.41578 2.17857C8.62412 1.86905 7.77292 1.71428 6.86221 1.71428C5.9515 1.71428 5.10031 1.86905 4.30864 2.17857C3.51697 2.48809 2.88602 2.90774 2.41578 3.4375C1.9515 3.96726 1.71935 4.53571 1.71935 5.14286C1.71935 5.63095 1.87709 6.10119 2.19257 6.55357C2.50804 7.00595 2.9515 7.39881 3.52292 7.73214L4.389 8.23214L4.0765 8.98214C4.27888 8.8631 4.4634 8.74702 4.63007 8.63393L5.02292 8.35714L5.49614 8.44643C5.96042 8.52976 6.41578 8.57143 6.86221 8.57143C7.77292 8.57143 8.62412 8.41667 9.41578 8.10714C10.2074 7.79762 10.8354 7.37798 11.2997 6.84821C11.7699 6.31845 12.0051 5.75 12.0051 5.14286C12.0051 4.53571 11.7699 3.96726 11.2997 3.4375C10.8354 2.90774 10.2074 2.48809 9.41578 2.17857ZM3.7015 1.1875C4.67173 0.776785 5.72531 0.571428 6.86221 0.571428C7.99912 0.571428 9.04971 0.776785 10.014 1.1875C10.9842 1.59226 11.7491 2.14583 12.3086 2.84821C12.8682 3.55059 13.1479 4.31548 13.1479 5.14286C13.1479 5.97024 12.8682 6.73512 12.3086 7.4375C11.7491 8.13988 10.9842 8.69643 10.014 9.10714C9.04971 9.5119 7.99912 9.71429 6.86221 9.71429C6.35031 9.71429 5.8265 9.66667 5.29078 9.57143C4.55269 10.0952 3.72531 10.4762 2.80864 10.7143C2.59435 10.7679 2.3384 10.8155 2.04078 10.8571H2.014C1.94852 10.8571 1.88602 10.8333 1.8265 10.7857C1.77292 10.7381 1.74019 10.6756 1.72828 10.5982C1.72233 10.5804 1.71935 10.5625 1.71935 10.5446C1.71935 10.5208 1.71935 10.5 1.71935 10.4821C1.72531 10.4643 1.73126 10.4464 1.73721 10.4286C1.74912 10.4107 1.75804 10.3958 1.764 10.3839C1.76995 10.372 1.77888 10.3571 1.79078 10.3393C1.80864 10.3155 1.82054 10.3006 1.8265 10.2946C1.8384 10.2827 1.85328 10.2679 1.87114 10.25C1.889 10.2262 1.9009 10.2113 1.90685 10.2054C1.93662 10.1696 2.00507 10.0952 2.11221 9.98214C2.21935 9.86905 2.29673 9.78274 2.34435 9.72321C2.39197 9.65774 2.45745 9.57143 2.54078 9.46429C2.63007 9.35119 2.70447 9.23512 2.764 9.11607C2.82947 8.99702 2.89197 8.86607 2.9515 8.72321C2.2134 8.29464 1.63304 7.76786 1.21042 7.14286C0.787806 6.51786 0.576496 5.85119 0.576496 5.14286C0.576496 4.31548 0.856258 3.55059 1.41578 2.84821C1.97531 2.14583 2.73721 1.59226 3.7015 1.1875ZM14.2015 11.0089C14.261 11.1518 14.3205 11.2827 14.3801 11.4018C14.4455 11.5208 14.5199 11.6369 14.6033 11.75C14.6926 11.8571 14.761 11.9405 14.8086 12C14.8563 12.0655 14.9336 12.1548 15.0408 12.2679C15.1479 12.381 15.2164 12.4554 15.2461 12.4911C15.2521 12.497 15.264 12.5089 15.2819 12.5268C15.2997 12.5506 15.3116 12.5655 15.3176 12.5714C15.3295 12.5833 15.3414 12.5982 15.3533 12.6161C15.3711 12.6399 15.383 12.6577 15.389 12.6696C15.3949 12.6815 15.4009 12.6964 15.4069 12.7143C15.4188 12.7321 15.4247 12.75 15.4247 12.7679C15.4307 12.7857 15.4336 12.8036 15.4336 12.8214C15.4336 12.8452 15.4307 12.8661 15.4247 12.8839C15.4069 12.9673 15.3682 13.0327 15.3086 13.0804C15.2491 13.128 15.1836 13.1488 15.1122 13.1429C14.8146 13.1012 14.5586 13.0536 14.3444 13C13.4277 12.7619 12.6003 12.381 11.8622 11.8571C11.3265 11.9524 10.8027 12 10.2908 12C8.67769 12 7.27293 11.6071 6.0765 10.8214C6.42173 10.8452 6.68364 10.8571 6.86221 10.8571C7.82054 10.8571 8.74019 10.7232 9.62114 10.4554C10.5021 10.1875 11.2878 9.80357 11.9783 9.30357C12.7223 8.75595 13.2938 8.125 13.6926 7.41071C14.0914 6.69643 14.2908 5.94048 14.2908 5.14286C14.2908 4.68452 14.2223 4.23214 14.0854 3.78571C14.8533 4.20833 15.4604 4.73809 15.9069 5.375C16.3533 6.0119 16.5765 6.69643 16.5765 7.42857C16.5765 8.14286 16.3652 8.8125 15.9426 9.4375C15.5199 10.0565 14.9396 10.5804 14.2015 11.0089Z" fill="#DF2818"/>
</svg>
