<svg width="25" height="25" viewBox="0 0 25 25" fill="none" xmlns="http://www.w3.org/2000/svg">
<g id="Group">
<path id="Vector" d="M12.4346 12.6166C12.0858 12.266 11.9801 11.6498 12.4346 11.1411C12.9925 10.6925 13.5583 10.8004 13.899 11.1411C14.3267 11.5688 14.2978 12.2178 13.899 12.6166C13.5116 13.0039 12.8407 13.0227 12.4346 12.6166Z" fill="#D01818"/>
<path id="Vector_2" d="M0.344145 17.0243C0.749794 16.6187 1.40695 16.6187 1.8126 17.0243L2.28619 17.4984C2.74102 17.2454 3.2387 17.0748 3.75768 17.0233L8.30349 12.4775L5.37521 9.5492C4.96956 9.14355 4.96956 8.4864 5.37521 8.08075L10.4316 3.02434L10.4336 3.02129L10.4367 3.01927L13.0673 0.388631C13.4162 0.039773 13.9618 -0.0139756 14.3735 0.255781C18.4148 2.92394 21.9176 6.4257 24.7845 10.6637C25.0634 11.0765 25.0106 11.6282 24.6587 11.9801L16.9666 19.6722C16.7638 19.875 16.4981 19.9764 16.2324 19.9764C15.9667 19.9764 15.701 19.875 15.4982 19.6722L12.4776 16.6515L7.9308 21.1974C7.87933 21.7163 7.70896 22.2136 7.45619 22.668L7.9308 23.1425C8.33644 23.5481 8.33644 24.2053 7.9308 24.611C7.52516 25.0166 6.86801 25.0166 6.46235 24.611L5.98723 24.1358C4.44151 25.0002 2.63006 24.6976 1.4394 23.5086C0.210789 22.2783 0.015316 20.4178 0.820023 18.9691L0.344145 18.4927C-0.0615044 18.0871 -0.0615044 17.4289 0.344145 17.0243ZM13.9293 2.46454L12.6373 3.75647L21.2908 12.411L22.5778 11.1241C20.1297 7.67105 17.2262 4.76254 13.9293 2.46454ZM16.2324 17.4695L19.8224 13.8794L11.1686 5.22479L7.57788 8.81498C19.821 21.0515 5.3063 6.54333 16.2324 17.4695ZM2.90785 22.0401C3.58289 22.7131 4.67621 22.7361 5.36608 22.0462C5.70581 21.7065 5.88531 21.2572 5.87111 20.7806C5.863 20.4946 5.97354 20.2178 6.17535 20.016L11.0092 15.1832L9.77193 13.9459L4.93913 18.7787C4.73732 18.9805 4.46351 19.0911 4.17449 19.083C3.70393 19.0637 3.24961 19.2483 2.90785 19.589C2.23244 20.2644 2.23244 21.3637 2.90785 22.0401Z" fill="#D01818"/>
</g>
</svg>
