<svg width="19" height="19" viewBox="0 0 19 19" fill="none" xmlns="http://www.w3.org/2000/svg">
<g id="dashboard 1">
<g id="Group">
<g id="Group_2">
<g id="Group_3">
<path id="Vector" d="M16.1488 4.80039C15.8966 4.54823 15.5007 4.51105 15.2059 4.71192C14.0954 5.46888 8.52514 9.27522 7.92649 9.87383C7.05836 10.742 7.05836 12.1545 7.92649 13.0227C8.36056 13.4567 8.93078 13.6738 9.50093 13.6738C10.0711 13.6738 10.6413 13.4567 11.0754 13.0227C11.674 12.4241 15.4803 6.8538 16.2373 5.74326C16.4381 5.4485 16.4009 5.05262 16.1488 4.80039ZM10.0257 11.9731C9.73635 12.2625 9.26547 12.2625 8.97613 11.9731C8.68675 11.6837 8.68672 11.213 8.97598 10.9236C9.20858 10.6938 10.7901 9.56586 12.7359 8.21334C11.3834 10.1591 10.2555 11.7405 10.0257 11.9731Z" fill="black"/>
<path id="Vector_2" d="M3.42263 14.9003L2.5064 15.3473C1.83599 14.1508 1.48437 12.8153 1.48437 11.4482C1.48437 10.4466 1.66907 9.48731 2.00613 8.60258L3.05599 9.10616C3.15953 9.15581 3.26882 9.17934 3.37647 9.17934C3.65305 9.17934 3.91856 9.02404 4.04618 8.75796C4.22342 8.38839 4.06756 7.94504 3.69795 7.76777L2.66141 7.27058C3.94974 5.16945 6.17878 3.70455 8.75785 3.46668V4.58297C8.75785 4.99288 9.09013 5.32516 9.50004 5.32516C9.90995 5.32516 10.2422 4.99288 10.2422 4.58297V3.46613C11.1265 3.54662 11.9821 3.7718 12.7943 4.13844C13.1678 4.3071 13.6074 4.14089 13.7761 3.76738C13.9447 3.39376 13.7786 2.9542 13.405 2.78554C12.1742 2.22998 10.8604 1.94824 9.5 1.94824C6.96246 1.94824 4.57681 2.93639 2.78246 4.7307C0.988185 6.52505 0 8.9107 0 11.4482C0 13.3234 0.556566 15.1471 1.60954 16.722C1.75138 16.9341 1.98587 17.0518 2.22701 17.0518C2.33663 17.0518 2.44766 17.0275 2.55197 16.9766L4.07346 16.2344C4.44188 16.0547 4.59484 15.6104 4.41512 15.242C4.2354 14.8736 3.79106 14.7207 3.42263 14.9003Z" fill="black"/>
<path id="Vector_3" d="M18.1629 7.54349C17.9942 7.16991 17.5548 7.00366 17.181 7.17239C16.8074 7.34106 16.6413 7.78062 16.81 8.1542C17.2784 9.1917 17.5158 10.3 17.5158 11.4484C17.5158 12.8175 17.1631 14.1552 16.4907 15.353L15.5341 14.8975C15.1641 14.7213 14.7212 14.8784 14.5449 15.2485C14.3687 15.6186 14.5259 16.0615 14.8959 16.2377L16.4545 16.9799C16.5571 17.0287 16.6658 17.052 16.7732 17.052C17.0144 17.052 17.249 16.9342 17.3906 16.7223C18.4436 15.1473 19.0002 13.3236 19.0002 11.4484C19.0002 10.088 18.7185 8.77422 18.1629 7.54349Z" fill="black"/>
</g>
</g>
</g>
</g>
</svg>
