<svg width="29" height="29" viewBox="0 0 29 29" fill="none" xmlns="http://www.w3.org/2000/svg">
<g id="Date range" clip-path="url(#clip0_551_383)">
<path id="Vector" d="M10.875 13.2915H8.45833V15.7082H10.875V13.2915ZM15.7083 13.2915H13.2917V15.7082H15.7083V13.2915ZM20.5417 13.2915H18.125V15.7082H20.5417V13.2915ZM22.9583 4.83317H21.75V2.4165H19.3333V4.83317H9.66667V2.4165H7.25V4.83317H6.04167C4.70042 4.83317 3.63708 5.92067 3.63708 7.24984L3.625 24.1665C3.625 25.4957 4.70042 26.5832 6.04167 26.5832H22.9583C24.2875 26.5832 25.375 25.4957 25.375 24.1665V7.24984C25.375 5.92067 24.2875 4.83317 22.9583 4.83317ZM22.9583 24.1665H6.04167V10.8748H22.9583V24.1665Z" fill="#D01818"/>
</g>
<defs>
<clipPath id="clip0_551_383">
<rect width="29" height="29" fill="white"/>
</clipPath>
</defs>
</svg>
