<svg width="16" height="13" viewBox="0 0 16 13" fill="none" xmlns="http://www.w3.org/2000/svg">
<path id="Path 90148" d="M14.6198 3.13871L7.27715 1.02239C7.17349 0.991193 7.06593 0.981005 6.96136 0.99249C6.8568 1.00398 6.75754 1.03688 6.66993 1.08909C6.58233 1.14129 6.50831 1.21165 6.45262 1.29567C6.39694 1.37968 6.36081 1.47549 6.34656 1.57696C6.31703 1.79101 6.37125 2.01426 6.49868 2.20335C6.6261 2.39244 6.81764 2.53385 7.03608 2.60012L12.4194 4.15091L1.14063 10.8723C0.970868 10.9921 0.858989 11.1738 0.827481 11.3808C0.795974 11.5878 0.847177 11.8049 0.970793 11.9883C1.09441 12.1718 1.28127 12.308 1.49381 12.3696C1.70636 12.4312 1.92883 12.4136 2.11649 12.3204L13.3934 5.60007L12.5876 10.8418C12.5581 11.0558 12.6123 11.2791 12.7398 11.4682C12.8672 11.6572 13.0587 11.7987 13.2772 11.8649C13.3808 11.8961 13.4884 11.9063 13.5929 11.8948C13.6975 11.8833 13.7968 11.8504 13.8844 11.7982C13.972 11.746 14.046 11.6757 14.1017 11.5917C14.1574 11.5076 14.1935 11.4118 14.2077 11.3104L15.3157 4.1714C15.3475 3.95523 15.2936 3.72903 15.1646 3.53772C15.0357 3.3464 14.8412 3.20397 14.6198 3.13871Z" fill="#83827F"/>
</svg>
