<svg xmlns="http://www.w3.org/2000/svg" width="36" height="36" viewBox="0 0 36 36" fill="none">
<circle cx="18" cy="18" r="18" fill="#D01818"/>
<path d="M22.1759 13.7402L16.1081 12.8643C15.9349 12.8393 15.7621 12.8837 15.6211 12.989C15.48 13.0944 15.3885 13.2475 15.3633 13.4206L15.2833 13.9715C15.2581 14.1445 15.3022 14.3174 15.4074 14.4583C15.5126 14.5991 15.6692 14.695 15.8422 14.7199L19.3854 15.2352L12.9448 20.0459C12.6544 20.2627 12.5946 20.6612 12.8113 20.9514L13.1442 21.3971C13.3609 21.6872 13.7771 21.7658 14.0675 21.5489L20.5311 16.7211L20.0053 20.2933C19.9802 20.4665 20.0216 20.6358 20.1269 20.7767C20.232 20.9174 20.384 21.0071 20.5571 21.0321L21.1073 21.1106C21.2805 21.1356 21.453 21.091 21.5941 20.9855C21.735 20.8802 21.8264 20.7268 21.8516 20.5536L22.7337 14.4868C22.7589 14.3132 22.7144 14.1396 22.6087 13.9989C22.5033 13.8571 22.3495 13.7651 22.1759 13.7402Z" fill="white"/>
</svg>