<svg width="25" height="19" viewBox="0 0 25 19" fill="none" xmlns="http://www.w3.org/2000/svg">
<path id="Vector" d="M2.92969 4.57021H3.79969C4.28022 4.57021 4.66969 4.95968 4.66969 5.44021V8.05021H7.27969V6.31021C7.27969 5.34915 8.05863 4.57021 9.01969 4.57021H12.4997V2.83021H9.01969C8.53916 2.83021 8.14969 2.44074 8.14969 1.96021V1.09021C8.14969 0.609685 8.53916 0.220215 9.01969 0.220215H18.5897C19.0702 0.220215 19.4597 0.609685 19.4597 1.09021V1.96021C19.4597 2.44074 19.0702 2.83021 18.5897 2.83021H15.1097V4.57021H18.5897C19.5507 4.57021 20.3297 5.34915 20.3297 6.31021V9.79021H22.0697V7.18021C22.0697 6.69968 22.4592 6.31021 22.9397 6.31021H23.8097C24.2902 6.31021 24.6797 6.69968 24.6797 7.18021V15.0102C24.6797 15.4907 24.2902 15.8802 23.8097 15.8802H22.9397C22.4592 15.8802 22.0697 15.4907 22.0697 15.0102V12.4002H20.3297V14.6553C20.3297 15.157 20.1131 15.6343 19.7355 15.9646L17.3415 18.0596C17.0243 18.3374 16.6177 18.4902 16.1963 18.4902C14.3151 18.4905 9.01969 18.4902 9.01969 18.4902C8.05863 18.4902 7.27969 17.7113 7.27969 16.7502V14.1402H4.66969V16.7502C4.66969 17.2307 4.28022 17.6202 3.79969 17.6202H2.92969C1.4881 17.6202 0.319685 16.4518 0.319685 15.0102V7.18021C0.319685 5.73862 1.4881 4.57021 2.92969 4.57021ZM10.9058 12.0128L12.6458 14.6228C12.9126 15.0227 13.3697 15.0099 13.3697 15.0099V12.3999H15.1097C15.4304 12.3999 15.7254 12.2233 15.877 11.9403C16.0281 11.6572 16.0116 11.3142 15.8338 11.0474L14.0938 8.43736C13.8273 8.03716 13.3697 8.04992 13.3697 8.04992V10.6599H11.6297C11.3089 10.6599 11.014 10.8365 10.8623 11.1196C10.7113 11.4026 10.7278 11.746 10.9058 12.0128Z" fill="#D01818"/>
</svg>
