<svg width="26" height="26" viewBox="0 0 26 26" fill="none" xmlns="http://www.w3.org/2000/svg">
<g id="Group 1000002901">
<path id="Vector" d="M20.5235 0.223082L18.2695 2.47701L20.424 4.6315L22.6651 2.39043H23.6082C24.0289 2.39043 24.3699 2.04938 24.3699 1.62871V0.761719C24.3699 0.341047 24.0289 0 23.6082 0H21.062C20.86 0 20.6663 0.0802344 20.5235 0.223082Z" fill="#D01818"/>
<path id="Vector_2" d="M19.1764 7.67697L19.7082 7.14514C20.0057 6.84767 20.0057 6.3654 19.7082 6.06792L16.8356 3.19528C16.5381 2.8978 16.0559 2.8978 15.7584 3.19528L15.2266 3.72706L19.1764 7.67697Z" fill="#D01818"/>
<path id="Vector_3" d="M7.76562 16.2275H11.266V19.7279H7.76562V16.2275Z" fill="#D01818"/>
<path id="Vector_4" d="M18.4044 9.05751L13.8492 4.50218C13.4655 4.11853 12.9554 3.90723 12.4128 3.90723H2.79297C1.25044 3.90723 0 5.15766 0 6.7002V23.2079C0 24.7504 1.25044 26.0009 2.79297 26.0009H16.2064C17.749 26.0009 18.9994 24.7504 18.9994 23.2079V10.4938C18.9994 9.95121 18.7881 9.44116 18.4044 9.05751ZM14.0736 21.4759C14.3711 21.7733 14.3711 22.2556 14.0736 22.5531C13.9249 22.7018 13.7299 22.7762 13.535 22.7762C13.3401 22.7762 13.1451 22.7019 12.9964 22.5531L11.6961 21.2528H7.30336L6.00305 22.5531C5.85431 22.7018 5.65937 22.7762 5.46447 22.7762C5.26957 22.7762 5.07457 22.7019 4.92588 22.5531C4.6284 22.2556 4.6284 21.7733 4.92588 21.4759L6.22619 20.1756V15.7827L4.92588 14.4824C4.6284 14.1849 4.6284 13.7027 4.92588 13.4052C5.22331 13.1077 5.70563 13.1077 6.0031 13.4052L7.30341 14.7055H11.6961L12.9965 13.4051C13.294 13.1077 13.7763 13.1077 14.0737 13.4051C14.3712 13.7026 14.3712 14.1849 14.0737 14.4824L12.7734 15.7827V20.1755L14.0736 21.4759ZM4.54848 9.95746C3.71917 9.95746 3.04687 9.28516 3.04687 8.45585C3.04687 7.62655 3.71917 6.95425 4.54848 6.95425H11.9921L14.9953 9.95751H4.54848V9.95746Z" fill="#D01818"/>
<path id="Vector_5" d="M24.0957 12.7461C23.0456 12.7461 22.1914 11.8919 22.1914 10.8418C22.1914 10.5723 22.268 10.0972 22.9302 9.08807C23.2604 8.58503 23.5866 8.17685 23.6004 8.15968C23.7209 8.00937 23.9031 7.92188 24.0957 7.92188C24.2883 7.92188 24.4705 8.00932 24.591 8.15968C24.6047 8.1768 24.9311 8.58498 25.2612 9.08807C25.9234 10.0972 26 10.5723 26 10.8418C26 11.8919 25.1458 12.7461 24.0957 12.7461Z" fill="#D01818"/>
</g>
</svg>
