<svg width="20" height="19" viewBox="0 0 20 19" fill="none" xmlns="http://www.w3.org/2000/svg">
<g id="gearbox 1">
<g id="Icon">
<path id="Vector" fill-rule="evenodd" clip-rule="evenodd" d="M3.33464 1.77637C2.06964 1.77637 1.04297 2.749 1.04297 3.94742C1.04297 5.14584 2.06964 6.11847 3.33464 6.11847C4.59964 6.11847 5.6263 5.14584 5.6263 3.94742C5.6263 2.749 4.59964 1.77637 3.33464 1.77637ZM3.33464 2.96058C3.90964 2.96058 4.3763 3.40268 4.3763 3.94742C4.3763 4.49216 3.90964 4.93426 3.33464 4.93426C2.75964 4.93426 2.29297 4.49216 2.29297 3.94742C2.29297 3.40268 2.75964 2.96058 3.33464 2.96058Z" fill="black"/>
<path id="Vector_2" fill-rule="evenodd" clip-rule="evenodd" d="M3.33464 12.8291C2.06964 12.8291 1.04297 13.8017 1.04297 15.0002C1.04297 16.1986 2.06964 17.1712 3.33464 17.1712C4.59964 17.1712 5.6263 16.1986 5.6263 15.0002C5.6263 13.8017 4.59964 12.8291 3.33464 12.8291ZM3.33464 14.0133C3.90964 14.0133 4.3763 14.4554 4.3763 15.0002C4.3763 15.5449 3.90964 15.987 3.33464 15.987C2.75964 15.987 2.29297 15.5449 2.29297 15.0002C2.29297 14.4554 2.75964 14.0133 3.33464 14.0133Z" fill="black"/>
<path id="Vector_3" fill-rule="evenodd" clip-rule="evenodd" d="M10.0026 1.77637C8.7376 1.77637 7.71094 2.749 7.71094 3.94742C7.71094 5.14584 8.7376 6.11847 10.0026 6.11847C11.2676 6.11847 12.2943 5.14584 12.2943 3.94742C12.2943 2.749 11.2676 1.77637 10.0026 1.77637ZM10.0026 2.96058C10.5776 2.96058 11.0443 3.40268 11.0443 3.94742C11.0443 4.49216 10.5776 4.93426 10.0026 4.93426C9.42761 4.93426 8.96094 4.49216 8.96094 3.94742C8.96094 3.40268 9.42761 2.96058 10.0026 2.96058Z" fill="black"/>
<path id="Vector_4" fill-rule="evenodd" clip-rule="evenodd" d="M10.0026 12.8291C8.7376 12.8291 7.71094 13.8017 7.71094 15.0002C7.71094 16.1986 8.7376 17.1712 10.0026 17.1712C11.2676 17.1712 12.2943 16.1986 12.2943 15.0002C12.2943 13.8017 11.2676 12.8291 10.0026 12.8291ZM10.0026 14.0133C10.5776 14.0133 11.0443 14.4554 11.0443 15.0002C11.0443 15.5449 10.5776 15.987 10.0026 15.987C9.42761 15.987 8.96094 15.5449 8.96094 15.0002C8.96094 14.4554 9.42761 14.0133 10.0026 14.0133Z" fill="black"/>
<path id="Vector_5" fill-rule="evenodd" clip-rule="evenodd" d="M16.6667 1.77637C15.4017 1.77637 14.375 2.749 14.375 3.94742C14.375 5.14584 15.4017 6.11847 16.6667 6.11847C17.9317 6.11847 18.9583 5.14584 18.9583 3.94742C18.9583 2.749 17.9317 1.77637 16.6667 1.77637ZM16.6667 2.96058C17.2417 2.96058 17.7083 3.40268 17.7083 3.94742C17.7083 4.49216 17.2417 4.93426 16.6667 4.93426C16.0917 4.93426 15.625 4.49216 15.625 3.94742C15.625 3.40268 16.0917 2.96058 16.6667 2.96058Z" fill="black"/>
<path id="Vector_6" fill-rule="evenodd" clip-rule="evenodd" d="M16.6667 12.8291C15.4017 12.8291 14.375 13.8017 14.375 15.0002C14.375 16.1986 15.4017 17.1712 16.6667 17.1712C17.9317 17.1712 18.9583 16.1986 18.9583 15.0002C18.9583 13.8017 17.9317 12.8291 16.6667 12.8291ZM16.6667 14.0133C17.2417 14.0133 17.7083 14.4554 17.7083 15.0002C17.7083 15.5449 17.2417 15.987 16.6667 15.987C16.0917 15.987 15.625 15.5449 15.625 15.0002C15.625 14.4554 16.0917 14.0133 16.6667 14.0133Z" fill="black"/>
<path id="Vector_7" fill-rule="evenodd" clip-rule="evenodd" d="M2.71094 5.52668V13.4214C2.71094 13.7483 2.99094 14.0135 3.33594 14.0135C3.68094 14.0135 3.96094 13.7483 3.96094 13.4214V5.52668C3.96094 5.19983 3.68094 4.93457 3.33594 4.93457C2.99094 4.93457 2.71094 5.19983 2.71094 5.52668Z" fill="black"/>
<path id="Vector_8" fill-rule="evenodd" clip-rule="evenodd" d="M9.375 5.52668V13.4214C9.375 13.7483 9.655 14.0135 10 14.0135C10.345 14.0135 10.625 13.7483 10.625 13.4214V5.52668C10.625 5.19983 10.345 4.93457 10 4.93457C9.655 4.93457 9.375 5.19983 9.375 5.52668Z" fill="black"/>
<path id="Vector_9" fill-rule="evenodd" clip-rule="evenodd" d="M16.0443 5.52668V8.68457C16.0443 8.79352 15.9509 8.88194 15.8359 8.88194H3.33594C2.99094 8.88194 2.71094 9.1472 2.71094 9.47404C2.71094 9.80088 2.99094 10.0661 3.33594 10.0661H15.8359C16.6418 10.0661 17.2943 9.4472 17.2943 8.68457C17.2943 7.53273 17.2943 5.52668 17.2943 5.52668C17.2943 5.19983 17.0143 4.93457 16.6693 4.93457C16.3243 4.93457 16.0443 5.19983 16.0443 5.52668Z" fill="black"/>
</g>
</g>
</svg>
