<svg width="19" height="18" viewBox="0 0 19 18" fill="none" xmlns="http://www.w3.org/2000/svg">
<g id="heart (1) 1" clip-path="url(#clip0_439_3810)">
<g id="Group">
<g id="Group_2">
<path id="Vector" d="M17.1183 2.20906C16.154 1.20833 14.8028 0.638934 13.3871 0.636824C11.9703 0.638407 10.6177 1.20751 9.65194 2.20842L9.32279 2.54424L8.99365 2.20842C7.0773 0.217029 3.85175 0.102667 1.78927 1.95293C1.69788 2.03496 1.60961 2.12014 1.52466 2.20842C-0.508221 4.32552 -0.508221 7.59741 1.52466 9.71451L8.83909 17.1621C9.09214 17.42 9.51385 17.431 9.781 17.1867C9.78975 17.1787 9.79826 17.1705 9.80653 17.1621L17.1183 9.71451C19.151 7.59763 19.151 4.32594 17.1183 2.20906ZM16.1542 8.82867H16.1535L9.32279 15.7847L2.49144 8.82867C0.93844 7.21101 0.93844 4.71128 2.49144 3.09362C3.90176 1.61776 6.28424 1.52523 7.81281 2.88691C7.88702 2.95302 7.95843 3.02197 8.0269 3.09362L8.83909 3.92092C9.10675 4.17769 9.53888 4.17769 9.80653 3.92092L10.6187 3.09426C12.029 1.6184 14.4115 1.52587 15.9401 2.88755C16.0143 2.95366 16.0857 3.02261 16.1542 3.09426C17.7207 4.71449 17.7322 7.21878 16.1542 8.82867Z" fill="white"/>
</g>
</g>
</g>
<defs>
<clipPath id="clip0_439_3810">
<rect width="18.6429" height="18" fill="white"/>
</clipPath>
</defs>
</svg>
