<svg width="9" height="9" viewBox="0 0 9 9" fill="none" xmlns="http://www.w3.org/2000/svg">
<g id="socials-icon/dark/default/Linkedin" clip-path="url(#clip0_107_1317)">
<path id="Subtract" fill-rule="evenodd" clip-rule="evenodd" d="M2.10578 1.47495C1.8452 1.47495 1.6338 1.6799 1.6338 1.9324V7.40379C1.6338 7.65631 1.84522 7.8611 2.10578 7.8611H7.54798C7.80866 7.8611 8.01995 7.65629 8.01995 7.40371V1.9324C8.01995 1.6799 7.80866 1.47495 7.54798 1.47495H2.10578ZM3.57444 3.94426V6.81933H2.61881V3.94426H3.57444ZM3.63743 3.05512C3.63743 3.33102 3.43001 3.55179 3.09683 3.55179L3.09057 3.55176C2.76984 3.55176 2.56249 3.33099 2.56249 3.05509C2.56249 2.77293 2.7761 2.55832 3.10316 2.55832C3.43001 2.55832 3.63119 2.77293 3.63743 3.05512ZM5.05895 6.81933H4.1034C4.1034 6.81933 4.11592 4.21408 4.10345 3.94436H5.05902V4.35132C5.18605 4.15545 5.4134 3.87686 5.92028 3.87686C6.54899 3.87686 7.02037 4.28779 7.02037 5.17085V6.81933H6.06484V5.28141C6.06484 4.89488 5.92647 4.63125 5.58077 4.63125C5.31671 4.63125 5.15948 4.80904 5.09043 4.98079C5.06518 5.04208 5.05895 5.12812 5.05895 5.21393V6.81933Z" fill="#5C5F66"/>
</g>
<defs>
<clipPath id="clip0_107_1317">
<rect width="7.85988" height="7.85988" fill="white" transform="translate(0.978821 0.819946)"/>
</clipPath>
</defs>
</svg>
