<svg width="17" height="17" viewBox="0 0 17 17" fill="none" xmlns="http://www.w3.org/2000/svg">
<g id="map (1) 1">
<path id="Vector" d="M8.5 0.53125C6.95014 0.53125 5.46376 1.14693 4.36784 2.24285C3.27193 3.33876 2.65625 4.82514 2.65625 6.375C2.65625 9.46156 7.8625 15.9906 8.08563 16.2722C8.1354 16.3342 8.19848 16.3843 8.2702 16.4187C8.34192 16.4531 8.42045 16.471 8.5 16.471C8.57955 16.471 8.65808 16.4531 8.7298 16.4187C8.80152 16.3843 8.8646 16.3342 8.91438 16.2722C9.1375 15.9906 14.3438 9.46156 14.3438 6.375C14.3438 4.82514 13.7281 3.33876 12.6322 2.24285C11.5362 1.14693 10.0499 0.53125 8.5 0.53125ZM8.5 7.96875C8.07971 7.96875 7.66887 7.84412 7.31941 7.61062C6.96996 7.37713 6.69759 7.04525 6.53676 6.65695C6.37592 6.26866 6.33384 5.84139 6.41583 5.42918C6.49782 5.01697 6.70021 4.63834 6.9974 4.34115C7.29458 4.04396 7.67322 3.84158 8.08543 3.75958C8.49764 3.67759 8.92491 3.71967 9.3132 3.88051C9.7015 4.04134 10.0334 4.31371 10.2669 4.66316C10.5004 5.01262 10.625 5.42347 10.625 5.84375C10.625 6.40734 10.4011 6.94784 10.0026 7.34635C9.60409 7.74487 9.06359 7.96875 8.5 7.96875Z" fill="#D01818"/>
</g>
</svg>
