<svg width="22" height="22" viewBox="0 0 22 22" fill="none" xmlns="http://www.w3.org/2000/svg">
<g id="reset 1" clip-path="url(#clip0_551_405)">
<g id="Icon">
<path id="86" d="M15.5547 0H6.44531C2.8875 0 0 2.8875 0 6.44531V15.5547C0 19.1125 2.8875 22 6.44531 22H15.5547C19.1125 22 22 19.1125 22 15.5547V6.44531C22 2.8875 19.1125 0 15.5547 0ZM16.3496 10.5145H11.4855L12.9465 9.05352C11.8723 7.9793 10.132 7.9793 9.05781 9.05352C7.98359 10.1277 7.98359 11.868 9.05781 12.9422C10.132 14.0164 11.8723 14.0164 12.9465 12.9422L14.893 14.8887C12.7445 17.0371 9.26406 17.0371 7.11563 14.8887C4.96719 12.7402 4.96719 9.25977 7.11563 7.11133C9.26406 4.96289 12.7445 4.96289 14.893 7.11133L16.3496 5.65469V10.5145Z" fill="#D01818"/>
</g>
</g>
<defs>
<clipPath id="clip0_551_405">
<rect width="22" height="22" fill="white"/>
</clipPath>
</defs>
</svg>
