<svg width="33" height="32" viewBox="0 0 33 32" fill="none" xmlns="http://www.w3.org/2000/svg">
<g clip-path="url(#clip0_551_372)">
<path d="M26.015 6.26375C25.74 5.4525 24.97 4.875 24.0625 4.875H8.9375C8.03 4.875 7.27375 5.4525 6.985 6.26375L4.125 14.5V25.5C4.125 26.2562 4.74375 26.875 5.5 26.875H6.875C7.63125 26.875 8.25 26.2562 8.25 25.5V24.125H24.75V25.5C24.75 26.2562 25.3687 26.875 26.125 26.875H27.5C28.2563 26.875 28.875 26.2562 28.875 25.5V14.5L26.015 6.26375ZM8.9375 20C7.79625 20 6.875 19.0787 6.875 17.9375C6.875 16.7962 7.79625 15.875 8.9375 15.875C10.0788 15.875 11 16.7962 11 17.9375C11 19.0787 10.0788 20 8.9375 20ZM24.0625 20C22.9212 20 22 19.0787 22 17.9375C22 16.7962 22.9212 15.875 24.0625 15.875C25.2038 15.875 26.125 16.7962 26.125 17.9375C26.125 19.0787 25.2038 20 24.0625 20ZM6.875 13.125L8.9375 6.9375H24.0625L26.125 13.125H6.875Z" fill="#D01818"/>
</g>
<defs>
<clipPath id="clip0_551_372">
<rect width="33" height="32" fill="white"/>
</clipPath>
</defs>
</svg>
