<svg width="22" height="20" viewBox="0 0 22 20" fill="none" xmlns="http://www.w3.org/2000/svg">
<g id="star 1">
<path id="Vector" d="M16.0302 18.5577C15.7857 18.5578 15.5449 18.4999 15.3288 18.3889L11.3146 16.3414C11.2835 16.3253 11.2488 16.3168 11.2135 16.3168C11.1782 16.3168 11.1435 16.3253 11.1124 16.3414L7.09881 18.3889C6.8501 18.5159 6.56971 18.5729 6.28938 18.5533C6.00906 18.5337 5.73998 18.4383 5.5126 18.278C5.28522 18.1177 5.10861 17.8988 5.00275 17.6461C4.8969 17.3935 4.86602 17.1171 4.91363 16.8483L5.68002 12.5114C5.68591 12.4774 5.68312 12.4426 5.67189 12.4099C5.66066 12.3772 5.64134 12.3477 5.61562 12.3239L2.371 9.2508C2.16955 9.06033 2.0271 8.81892 1.95978 8.55391C1.89246 8.2889 1.90298 8.01089 1.99012 7.75138C2.07727 7.49187 2.23757 7.26124 2.45286 7.08561C2.66816 6.90998 2.92983 6.79638 3.20824 6.75767L7.69261 6.1258C7.7275 6.12087 7.76063 6.10777 7.78914 6.08762C7.81764 6.06747 7.84065 6.04089 7.85619 6.01017L9.86105 2.0633C9.98523 1.81862 10.1775 1.61258 10.4161 1.4685C10.6548 1.32441 10.9302 1.24805 11.2113 1.24805C11.4923 1.24805 11.7677 1.32441 12.0064 1.4685C12.245 1.61258 12.4373 1.81862 12.5615 2.0633L14.5676 6.00892C14.5833 6.03955 14.6063 6.06605 14.6348 6.08618C14.6633 6.10631 14.6963 6.11947 14.7312 6.12455L19.2194 6.75705C19.4977 6.79597 19.7592 6.90969 19.9743 7.08535C20.1895 7.26101 20.3496 7.49158 20.4368 7.751C20.5239 8.01041 20.5345 8.28831 20.4673 8.55325C20.4001 8.81819 20.2579 9.05961 20.0567 9.25017L16.8088 12.3214C16.7832 12.3452 16.7639 12.3748 16.7527 12.4074C16.7415 12.4401 16.7386 12.4749 16.7444 12.5089L17.5108 16.8458C17.5477 17.0553 17.5371 17.2702 17.4797 17.4753C17.4223 17.6805 17.3195 17.871 17.1785 18.0337C17.0376 18.1964 16.8617 18.3274 16.6633 18.4174C16.4649 18.5075 16.2486 18.5545 16.0295 18.5552L16.0302 18.5577ZM11.2135 15.0664C11.4578 15.0664 11.6983 15.1243 11.9142 15.2352L15.9278 17.282C15.9633 17.3018 16.0041 17.3108 16.0449 17.308C16.0857 17.3052 16.1247 17.2908 16.1571 17.2664C16.1908 17.244 16.217 17.2124 16.2325 17.1756C16.2479 17.1389 16.2519 17.0985 16.244 17.0595L15.477 12.722C15.436 12.4886 15.454 12.249 15.5293 12.0238C15.6047 11.7986 15.7353 11.5944 15.9098 11.4289L19.1576 8.35705C19.1866 8.32949 19.2071 8.29462 19.2167 8.25637C19.2264 8.21812 19.2248 8.17801 19.2122 8.14057C19.1996 8.10313 19.1765 8.06985 19.1455 8.04449C19.1144 8.01913 19.0767 8.0027 19.0365 7.99705L14.5489 7.36392C14.3073 7.32997 14.0779 7.23945 13.8804 7.10018C13.6829 6.96091 13.5233 6.77707 13.4154 6.56455L11.4067 2.6183C11.3887 2.58298 11.3609 2.55325 11.3264 2.53247C11.292 2.51168 11.2522 2.50066 11.2116 2.50066C11.171 2.50066 11.1312 2.51168 11.0967 2.53247C11.0622 2.55325 11.0344 2.58298 11.0164 2.6183L9.01158 6.5633C8.90363 6.7759 8.74396 6.95979 8.54635 7.09906C8.34875 7.23834 8.11916 7.32882 7.87744 7.36267L3.3905 7.99705C3.35026 8.00257 3.31242 8.01895 3.2813 8.04433C3.25017 8.0697 3.22702 8.10304 3.21447 8.14056C3.20192 8.17808 3.20047 8.21826 3.2103 8.25654C3.22013 8.29481 3.24084 8.32964 3.27007 8.35705L6.51726 11.4289C6.69176 11.5944 6.82229 11.7986 6.89767 12.0238C6.97305 12.249 6.99102 12.4886 6.95004 12.722L6.18301 17.0595C6.17605 17.0985 6.1805 17.1386 6.19586 17.1752C6.21122 17.2119 6.23687 17.2436 6.26988 17.2668C6.3029 17.2899 6.34196 17.3037 6.38262 17.3064C6.42328 17.3091 6.4639 17.3006 6.49987 17.282L10.5128 15.2345C10.7288 15.1241 10.9693 15.0664 11.2135 15.0664Z" fill="black"/>
</g>
</svg>
