<svg width="15" height="15" viewBox="0 0 15 15" fill="none" xmlns="http://www.w3.org/2000/svg">
<path d="M7.63672 0.96875C11.3828 0.96875 14.418 4.00391 14.418 7.75C14.418 11.4961 11.3828 14.5312 7.63672 14.5312C3.89062 14.5312 0.855469 11.4961 0.855469 7.75C0.855469 4.00391 3.89062 0.96875 7.63672 0.96875ZM7.63672 13.2188C10.6445 13.2188 13.1055 10.7852 13.1055 7.75C13.1055 4.74219 10.6445 2.28125 7.63672 2.28125C4.60156 2.28125 2.16797 4.74219 2.16797 7.75C2.16797 10.7852 4.60156 13.2188 7.63672 13.2188ZM9.30469 10.375L6.98047 8.67969C6.89844 8.625 6.87109 8.51562 6.87109 8.43359V3.92188C6.87109 3.75781 7.00781 3.59375 7.19922 3.59375H8.07422C8.23828 3.59375 8.40234 3.75781 8.40234 3.92188V7.80469L10.207 9.14453C10.3711 9.25391 10.3984 9.44531 10.2891 9.60938L9.76953 10.293C9.66016 10.457 9.46875 10.4844 9.30469 10.375Z" fill="#DF2818"/>
</svg>
