<svg width="25" height="23" viewBox="0 0 25 23" fill="none" xmlns="http://www.w3.org/2000/svg">
<path d="M24.1988 3.30959C24.1988 1.78859 22.9898 0.57959 21.4688 0.57959C19.9478 0.57959 18.7388 1.78859 18.7388 3.30959C18.7388 4.55759 19.5578 5.57159 20.6888 5.92259V10.7196H13.2788V5.92259C14.4098 5.57159 15.2288 4.55759 15.2288 3.30959C15.2288 1.78859 14.0198 0.57959 12.4988 0.57959C10.9778 0.57959 9.76883 1.78859 9.76883 3.30959C9.76883 4.55759 10.5878 5.57159 11.7188 5.92259V10.7196H4.30883V5.92259C5.43983 5.57159 6.25883 4.55759 6.25883 3.30959C6.25883 1.78859 5.04983 0.57959 3.52883 0.57959C2.00783 0.57959 0.798828 1.78859 0.798828 3.30959C0.798828 4.55759 1.61783 5.57159 2.74883 5.92259V17.0766C1.61783 17.4276 0.798828 18.4416 0.798828 19.6896C0.798828 21.2106 2.00783 22.4196 3.52883 22.4196C5.04983 22.4196 6.25883 21.2106 6.25883 19.6896C6.25883 18.4416 5.43983 17.4276 4.30883 17.0766V12.2796H11.7188V17.0766C10.5878 17.4276 9.76883 18.4416 9.76883 19.6896C9.76883 21.2106 10.9778 22.4196 12.4988 22.4196C14.0198 22.4196 15.2288 21.2106 15.2288 19.6896C15.2288 18.4416 14.4098 17.4276 13.2788 17.0766V12.2796H21.4688C21.8978 12.2796 22.2488 11.9286 22.2488 11.4996V5.92259C23.3798 5.61059 24.1988 4.55759 24.1988 3.30959ZM11.3288 3.30959C11.3288 2.68559 11.8358 2.13959 12.4988 2.13959C13.1228 2.13959 13.6688 2.64659 13.6688 3.30959C13.6688 3.93359 13.1618 4.47959 12.4988 4.47959C11.8748 4.47959 11.3288 3.97259 11.3288 3.30959ZM2.35883 3.30959C2.35883 2.68559 2.86583 2.13959 3.52883 2.13959C4.15283 2.13959 4.69883 2.64659 4.69883 3.30959C4.69883 3.93359 4.19183 4.47959 3.52883 4.47959C2.86583 4.47959 2.35883 3.97259 2.35883 3.30959ZM4.69883 19.6896C4.69883 20.3136 4.19183 20.8596 3.52883 20.8596C2.90483 20.8596 2.35883 20.3526 2.35883 19.6896C2.35883 19.0266 2.86583 18.5196 3.52883 18.5196C4.15283 18.5196 4.69883 19.0266 4.69883 19.6896ZM13.6688 19.6896C13.6688 20.3136 13.1618 20.8596 12.4988 20.8596C11.8748 20.8596 11.3288 20.3526 11.3288 19.6896C11.3288 19.0266 11.8358 18.5196 12.4988 18.5196C13.1228 18.5196 13.6688 19.0266 13.6688 19.6896ZM21.4688 4.47959C20.8448 4.47959 20.2988 3.97259 20.2988 3.30959C20.2988 2.68559 20.8058 2.13959 21.4688 2.13959C22.1318 2.13959 22.6388 2.64659 22.6388 3.30959C22.6388 3.97259 22.1318 4.47959 21.4688 4.47959Z" fill="#D01818"/>
</svg>
